<svg width="287" height="131" viewBox="0 0 287 131" fill="none" xmlns="http://www.w3.org/2000/svg">
<path d="M132.994 -152.188C138.128 -159.426 148.872 -159.426 154.006 -152.188V-152.188C158.271 -146.173 166.705 -144.961 172.493 -149.53V-149.53C179.458 -155.028 189.766 -152.001 192.653 -143.61V-143.61C195.051 -136.638 202.802 -133.098 209.642 -135.851V-135.851C217.874 -139.165 226.913 -133.356 227.318 -124.491V-124.491C227.655 -117.126 234.095 -111.546 241.433 -112.261V-112.261C250.265 -113.121 257.301 -105.001 255.193 -96.3813V-96.3813C253.441 -89.2192 258.048 -82.051 265.29 -80.6693V-80.6693C274.007 -79.0063 278.47 -69.2332 274.019 -61.5565V-61.5565C270.32 -55.1781 272.721 -47.0024 279.281 -43.6361V-43.6361C287.176 -39.5848 288.705 -28.95 282.271 -22.8384V-22.8384C276.925 -17.7604 276.925 -9.23958 282.271 -4.16157V-4.16157C288.705 1.95003 287.176 12.5848 279.281 16.6361V16.6361C272.721 20.0024 270.32 28.1781 274.019 34.5565V34.5565C278.47 42.2332 274.007 52.0063 265.29 53.6693V53.6693C258.048 55.051 253.441 62.2192 255.193 69.3813V69.3813C257.301 78.0011 250.265 86.121 241.433 85.2608V85.2608C234.095 84.546 227.655 90.126 227.318 97.4915V97.4915C226.913 106.356 217.874 112.165 209.642 108.851V108.851C202.802 106.098 195.051 109.638 192.653 116.61V116.61C189.766 125.001 179.458 128.028 172.493 122.53V122.53C166.705 117.961 158.271 119.173 154.006 125.188V125.188C148.872 132.426 138.128 132.426 132.994 125.188V125.188C128.729 119.173 120.295 117.961 114.507 122.53V122.53C107.542 128.028 97.2335 125.001 94.347 116.61V116.61C91.9486 109.638 84.1978 106.098 77.3579 108.851V108.851C69.1258 112.165 60.0873 106.356 59.6818 97.4915V97.4915C59.3449 90.126 52.9053 84.546 45.5668 85.2608V85.2608C36.7346 86.121 29.6987 78.0011 31.8071 69.3813V69.3813C33.559 62.2192 28.9523 55.051 21.7097 53.6693V53.6693C12.9929 52.0063 8.52964 42.2332 12.9811 34.5565V34.5565C16.6798 28.1781 14.2792 20.0024 7.71926 16.6361V16.6361C-0.175916 12.5848 -1.70497 1.95003 4.729 -4.16157V-4.16157C10.0749 -9.23958 10.0749 -17.7604 4.72899 -22.8384V-22.8384C-1.70497 -28.95 -0.175915 -39.5848 7.71926 -43.6361V-43.6361C14.2792 -47.0024 16.6798 -55.1781 12.9811 -61.5565V-61.5565C8.52964 -69.2332 12.9929 -79.0063 21.7097 -80.6693V-80.6693C28.9523 -82.051 33.559 -89.2192 31.8071 -96.3813V-96.3813C29.6987 -105.001 36.7346 -113.121 45.5668 -112.261V-112.261C52.9053 -111.546 59.3449 -117.126 59.6818 -124.491V-124.491C60.0873 -133.356 69.1258 -139.165 77.3579 -135.851V-135.851C84.1978 -133.098 91.9486 -136.638 94.347 -143.61V-143.61C97.2335 -152.001 107.542 -155.028 114.507 -149.53V-149.53C120.295 -144.961 128.729 -146.173 132.994 -152.188V-152.188Z" fill="#B3E1EB"/>
</svg>
