<svg width="167" height="142" viewBox="0 0 167 142" fill="none" xmlns="http://www.w3.org/2000/svg">
<path d="M11.72 15.38C11.72 16.5533 11.4933 17.5533 11.04 18.38C10.6 19.2067 9.99333 19.8333 9.22 20.26C8.44667 20.7 7.56 20.94 6.56 20.98V19.1C7.49333 19.0467 8.26 18.7133 8.86 18.1C9.47333 17.5 9.78 16.5733 9.78 15.32V3.54H11.72V15.38ZM14.9847 10.78C14.9847 9.78 15.1714 8.84 15.5447 7.96C15.9314 7.06667 16.4647 6.28 17.1447 5.6C17.8247 4.90667 18.6047 4.36667 19.4847 3.98C20.378 3.58 21.338 3.38 22.3647 3.38C23.378 3.38 24.3247 3.58 25.2047 3.98C26.098 4.36667 26.8847 4.90667 27.5647 5.6C28.258 6.28 28.798 7.06667 29.1847 7.96C29.5714 8.84 29.7647 9.78 29.7647 10.78C29.7647 11.8067 29.5714 12.7667 29.1847 13.66C28.798 14.5533 28.258 15.34 27.5647 16.02C26.8847 16.6867 26.098 17.2133 25.2047 17.6C24.3247 17.9733 23.378 18.16 22.3647 18.16C21.338 18.16 20.378 17.9733 19.4847 17.6C18.6047 17.2267 17.8247 16.7067 17.1447 16.04C16.4647 15.3733 15.9314 14.5933 15.5447 13.7C15.1714 12.8067 14.9847 11.8333 14.9847 10.78ZM16.9847 10.8C16.9847 11.56 17.1247 12.2733 17.4047 12.94C17.6847 13.5933 18.0714 14.1733 18.5647 14.68C19.058 15.1867 19.6314 15.5867 20.2847 15.88C20.938 16.16 21.6447 16.3 22.4047 16.3C23.1514 16.3 23.8514 16.16 24.5047 15.88C25.158 15.5867 25.7247 15.1867 26.2047 14.68C26.6847 14.1733 27.0647 13.5933 27.3447 12.94C27.6247 12.2733 27.7647 11.5533 27.7647 10.78C27.7647 10.02 27.6247 9.30667 27.3447 8.64C27.0647 7.96 26.678 7.36667 26.1847 6.86C25.6914 6.35333 25.118 5.96 24.4647 5.68C23.8114 5.38667 23.1114 5.24 22.3647 5.24C21.6047 5.24 20.898 5.38667 20.2447 5.68C19.5914 5.97333 19.018 6.37333 18.5247 6.88C18.0314 7.38667 17.6514 7.98 17.3847 8.66C17.118 9.32667 16.9847 10.04 16.9847 10.8ZM40.5131 6.12C40.0198 5.86667 39.4798 5.64667 38.8931 5.46C38.3065 5.27333 37.7331 5.18 37.1731 5.18C36.3998 5.18 35.7798 5.36 35.3131 5.72C34.8598 6.08 34.6331 6.56 34.6331 7.16C34.6331 7.61333 34.7798 8 35.0731 8.32C35.3665 8.62667 35.7531 8.89333 36.2331 9.12C36.7131 9.34667 37.2131 9.56 37.7331 9.76C38.1865 9.93333 38.6331 10.1267 39.0731 10.34C39.5131 10.5533 39.9065 10.82 40.2531 11.14C40.6131 11.46 40.8931 11.8533 41.0931 12.32C41.3065 12.7867 41.4131 13.3667 41.4131 14.06C41.4131 14.82 41.2198 15.5133 40.8331 16.14C40.4598 16.7667 39.9198 17.26 39.2131 17.62C38.5065 17.98 37.6665 18.16 36.6931 18.16C36.0531 18.16 35.4398 18.0867 34.8531 17.94C34.2798 17.7933 33.7465 17.6067 33.2531 17.38C32.7598 17.14 32.3198 16.8933 31.9331 16.64L32.7931 15.12C33.1131 15.3467 33.4798 15.5667 33.8931 15.78C34.3065 15.98 34.7398 16.1467 35.1931 16.28C35.6465 16.4 36.0865 16.46 36.5131 16.46C36.9665 16.46 37.4131 16.38 37.8531 16.22C38.3065 16.0467 38.6798 15.7867 38.9731 15.44C39.2665 15.0933 39.4131 14.6333 39.4131 14.06C39.4131 13.5667 39.2798 13.16 39.0131 12.84C38.7598 12.5067 38.4198 12.2267 37.9931 12C37.5665 11.76 37.1131 11.5467 36.6331 11.36C36.1798 11.1867 35.7198 11 35.2531 10.8C34.7865 10.5867 34.3531 10.3333 33.9531 10.04C33.5531 9.73333 33.2331 9.36 32.9931 8.92C32.7531 8.48 32.6331 7.94667 32.6331 7.32C32.6331 6.56 32.8131 5.9 33.1731 5.34C33.5465 4.76667 34.0531 4.32 34.6931 4C35.3331 3.66667 36.0665 3.48667 36.8931 3.46C37.8265 3.46 38.6465 3.57333 39.3531 3.8C40.0731 4.02667 40.7065 4.30667 41.2531 4.64L40.5131 6.12ZM44.6738 3.54H54.0738V5.4H46.6138V9.8H53.2738V11.66H46.6138V16.14H54.3537V18H44.6738V3.54ZM57.7206 3.54H66.3006V5.4H59.6606V10.02H65.4806V11.86H59.6606V18H57.7206V3.54ZM69.498 3.54H71.438V18H69.498V3.54ZM88.1117 18.46L76.9317 7.12L77.4917 7.26L77.5317 18H75.5917V3.1H75.6917L86.7517 14.48L86.2917 14.38L86.2517 3.54H88.1717V18.46H88.1117ZM92.33 3.54H101.73V5.4H94.27V9.8H100.93V11.66H94.27V16.14H102.01V18H92.33V3.54Z" fill="#292E36"/>
<path d="M47.75 94.3C48.15 94.2333 48.45 94.3667 48.65 94.7C48.8833 95 48.9333 95.3333 48.8 95.7C48.7 96.0333 48.45 96.2333 48.05 96.3C47.0167 96.4333 45.8667 96.6167 44.6 96.85C42.8667 102.783 40.15 108.25 36.45 113.25C32.75 118.25 28.2833 122.417 23.05 125.75C21.9833 126.45 21.1333 126.983 20.5 127.35C19.8667 127.75 18.9 128.3 17.6 129C16.3333 129.733 15.2 130.283 14.2 130.65C13.2 131.017 12.1 131.367 10.9 131.7C9.73333 132.067 8.61667 132.217 7.55 132.15C6.48333 132.117 5.51667 131.883 4.65 131.45C3.35 130.817 2.46667 129.933 2 128.8C1.53333 127.7 1.46667 126.517 1.8 125.25C2.1 123.983 2.53333 122.783 3.1 121.65C3.63333 120.517 4.28333 119.467 5.05 118.5C9.61667 112.533 15.2 107.55 21.8 103.55C28.4 99.5167 35.4667 96.7167 43 95.15C43.7667 92.2833 44.3 89.4167 44.6 86.55C44.9 83.65 44.9167 80.7 44.65 77.7C44.4167 74.7 43.8833 71.8833 43.05 69.25C42.2167 66.6167 40.95 64.15 39.25 61.85C37.5833 59.55 35.5667 57.65 33.2 56.15C31.4 55.0167 29.45 54.1667 27.35 53.6C25.2833 53 23.2 52.7 21.1 52.7C19.0333 52.7 16.9667 53.0667 14.9 53.8C12.8667 54.5 11.0333 55.5333 9.4 56.9C6.2 59.6 4.1 63.0167 3.1 67.15C2.1 71.2833 2.41667 75.25 4.05 79.05C4.21667 79.45 4.18333 79.8 3.95 80.1C3.71667 80.3667 3.41667 80.5 3.05 80.5C2.68333 80.4667 2.41667 80.2667 2.25 79.9C1.21667 77.5333 0.65 75.1 0.55 72.6C0.45 70.1 0.75 67.7667 1.45 65.6C2.15 63.4 3.21667 61.3333 4.65 59.4C6.08333 57.4333 7.73333 55.7833 9.6 54.45C11.5 53.1167 13.65 52.1167 16.05 51.45C18.45 50.75 20.9167 50.5167 23.45 50.75C26.6833 51.05 29.6167 51.9 32.25 53.3C34.9167 54.7 37.1333 56.4667 38.9 58.6C40.6667 60.7 42.15 63.1167 43.35 65.85C44.5833 68.5833 45.45 71.4167 45.95 74.35C46.4833 77.25 46.7333 80.2167 46.7 83.25C46.6333 87.05 46.1333 90.8667 45.2 94.7C46.2 94.5333 47.05 94.4 47.75 94.3ZM39.85 103.9C40.8167 101.9 41.6667 99.7167 42.4 97.35C35.0667 98.9833 28.1833 101.783 21.75 105.75C15.35 109.683 10.1667 114.533 6.2 120.3C4.5 122.7 3.65 124.517 3.65 125.75C3.65 126.65 3.8 127.4 4.1 128C4.4 128.633 4.75 129.083 5.15 129.35C5.55 129.65 6.06667 129.833 6.7 129.9C7.36667 129.967 7.96667 129.967 8.5 129.9C9.03333 129.833 9.68333 129.683 10.45 129.45C11.2167 129.25 11.7833 129.067 12.15 128.9C12.5167 128.767 13 128.583 13.6 128.35C13.7 128.317 13.7833 128.283 13.85 128.25C17.55 126.75 21.0333 124.833 24.3 122.5C31.1333 117.533 36.3167 111.333 39.85 103.9ZM54.734 96C56.3007 96.4 57.4007 97.3667 58.034 98.9C58.6673 100.4 58.7007 101.917 58.134 103.45C57.634 104.917 56.884 106.267 55.884 107.5C54.884 108.733 53.7507 109.383 52.484 109.45C51.184 109.517 50.234 109.067 49.634 108.1C49.0673 107.133 48.9007 106.017 49.134 104.75C49.6007 102.15 50.9507 99.55 53.184 96.95C53.2507 96.8833 53.334 96.8167 53.434 96.75C53.6673 96.1167 54.1007 95.8667 54.734 96ZM51.434 107.15C52.0673 107.717 53.0173 107.333 54.284 106C55.7507 104.467 56.534 102.867 56.634 101.2C56.734 99.7667 56.1173 98.75 54.784 98.15C54.5173 98.45 54.234 98.8167 53.934 99.25C53.634 99.65 53.284 100.15 52.884 100.75C52.484 101.35 52.134 101.95 51.834 102.55C51.534 103.15 51.284 103.75 51.084 104.35C50.884 104.917 50.8007 105.45 50.834 105.95C50.9007 106.45 51.1007 106.85 51.434 107.15ZM75.1203 96.55C75.4536 96.3167 75.8036 96.2833 76.1703 96.45C76.537 96.6167 76.737 96.8667 76.7703 97.2C76.837 97.5333 76.7203 97.8333 76.4203 98.1C73.987 99.8 71.7703 101.45 69.7703 103.05C70.6703 103.617 71.4036 104.183 71.9703 104.75C72.5703 105.283 73.087 105.9 73.5203 106.6C73.987 107.3 74.1536 108.067 74.0203 108.9C73.887 109.733 73.4703 110.567 72.7703 111.4C72.0703 112.233 71.1536 113 70.0203 113.7C68.887 114.433 67.687 114.983 66.4203 115.35C65.187 115.75 64.0036 115.733 62.8703 115.3C61.737 114.867 60.9203 113.983 60.4203 112.65C59.6536 110.55 60.7703 108.133 63.7703 105.4C64.5036 104.767 65.337 104.05 66.2703 103.25C66.2036 103.217 65.7703 102.983 64.9703 102.55C64.1703 102.117 63.637 101.817 63.3703 101.65C63.1036 101.483 62.6703 101.2 62.0703 100.8C61.5036 100.4 61.0536 100.017 60.7203 99.65C60.387 99.2833 60.087 98.8833 59.8203 98.45C58.787 96.65 59.3536 94.6333 61.5203 92.4C63.387 90.4667 65.537 89.2167 67.9703 88.65C70.637 88.0167 72.3203 88.6 73.0203 90.4C73.1203 90.7 73.2036 91.0333 73.2703 91.4C73.3036 91.8 73.1703 92.1167 72.8703 92.35C72.5703 92.55 72.237 92.6 71.8703 92.5C71.5036 92.3667 71.3036 92.1 71.2703 91.7C71.0036 89.8667 69.3203 89.8833 66.2203 91.75C64.8536 92.55 63.8203 93.3 63.1203 94C62.5203 94.6 62.087 95.1167 61.8203 95.55C61.587 95.9833 61.5203 96.4667 61.6203 97C61.7536 97.5 62.1203 98.0333 62.7203 98.6C63.0203 98.8667 63.3703 99.15 63.7703 99.45C64.1703 99.7167 64.5036 99.9333 64.7703 100.1C65.0703 100.267 65.487 100.517 66.0203 100.85C66.587 101.15 66.9536 101.35 67.1203 101.45C67.2203 101.483 67.3536 101.567 67.5203 101.7C67.7203 101.8 67.8703 101.867 67.9703 101.9C70.1703 100.133 72.5536 98.35 75.1203 96.55ZM70.6203 110.7C71.0536 110.233 71.3703 109.783 71.5703 109.35C71.7703 108.917 71.837 108.517 71.7703 108.15C71.7036 107.75 71.5703 107.383 71.3703 107.05C71.2036 106.717 70.9203 106.383 70.5203 106.05C70.1536 105.717 69.787 105.433 69.4203 105.2C69.0536 104.933 68.6203 104.65 68.1203 104.35C67.2203 105.117 66.3703 105.833 65.5703 106.5C65.437 106.633 65.2036 106.833 64.8703 107.1C64.5703 107.367 64.3203 107.583 64.1203 107.75C63.9203 107.917 63.7036 108.15 63.4703 108.45C63.2703 108.717 63.1036 108.983 62.9703 109.25C62.237 110.883 62.3036 112.05 63.1703 112.75C64.0703 113.45 65.2703 113.6 66.7703 113.2C68.0036 112.9 69.287 112.067 70.6203 110.7ZM95.0605 96.3C95.3605 96 95.6772 95.9333 96.0105 96.1C96.3439 96.2333 96.5439 96.4833 96.6105 96.85C96.7105 97.1833 96.6272 97.5167 96.3605 97.85C89.4939 104.883 83.5605 107.8 78.5605 106.6C76.7939 106.2 75.4605 105.433 74.5605 104.3C73.6605 103.133 73.3105 101.85 73.5105 100.45C73.6772 99.0167 74.3272 97.65 75.4605 96.35C76.3605 95.3833 77.5272 94.6 78.9605 94C81.0939 93.1333 82.1439 93.6667 82.1105 95.6C82.1105 95.6333 82.1105 95.6667 82.1105 95.7C82.0772 97 81.2939 98.2333 79.7605 99.4C78.2272 100.567 76.8439 100.95 75.6105 100.55C75.4772 102.05 76.1105 103.167 77.5105 103.9C78.9105 104.633 80.4439 104.85 82.1105 104.55C84.4772 104.117 86.6772 103.2 88.7105 101.8C90.7772 100.367 92.8939 98.5333 95.0605 96.3ZM79.2105 96C78.7439 96.0333 78.2272 96.3167 77.6605 96.85C77.1272 97.3833 76.6605 97.9667 76.2605 98.6C76.9605 98.9333 77.8105 98.5333 78.8105 97.4C79.4772 96.6333 79.6605 96.1667 79.3605 96C79.3272 96 79.2772 96 79.2105 96ZM106.221 98.7C106.621 98.6333 106.921 98.75 107.121 99.05C107.354 99.35 107.404 99.6833 107.271 100.05C107.171 100.417 106.921 100.633 106.521 100.7C103.088 101.233 99.7544 102.3 96.5211 103.9C96.4211 107.9 96.3878 111.967 96.4211 116.1C96.9878 116.567 97.3878 116.917 97.6211 117.15C100.421 119.75 102.221 124 103.021 129.9C103.321 132.133 103.238 134.35 102.771 136.55C102.071 139.983 100.571 140.75 98.2711 138.85C97.6044 138.283 97.0211 137.5 96.5211 136.5C96.0544 135.533 95.6878 134.567 95.4211 133.6C95.1878 132.633 94.9878 131.45 94.8211 130.05C94.6878 128.65 94.6044 127.483 94.5711 126.55C94.5378 125.65 94.5044 124.5 94.4711 123.1C94.4378 121.733 94.4211 120.833 94.4211 120.4C94.3878 119.667 94.3544 118.683 94.3211 117.45C90.9211 114.883 86.9211 113.817 82.3211 114.25C81.8211 114.283 81.4878 114.067 81.3211 113.6C81.1211 113.167 81.2044 112.783 81.5711 112.45C86.1378 108.117 90.4544 104.85 94.5211 102.65C94.7211 98.4167 95.0211 94.1667 95.4211 89.9C95.4544 89.4667 95.5044 88.6833 95.5711 87.55C95.6711 86.4167 95.7544 85.3833 95.8211 84.45C95.8878 83.4833 96.0044 82.35 96.1711 81.05C96.3378 79.7167 96.5378 78.5333 96.7711 77.5C97.0044 76.4667 97.3378 75.4333 97.7711 74.4C98.2044 73.3333 98.6878 72.4833 99.2211 71.85C99.7878 71.2167 100.488 70.75 101.321 70.45C102.154 70.1167 103.071 70.05 104.071 70.25C104.471 70.35 104.738 70.5833 104.871 70.95C105.004 71.3167 104.971 71.65 104.771 71.95C104.571 72.25 104.271 72.35 103.871 72.25C103.071 72.0833 102.321 72.35 101.621 73.05C100.954 73.75 100.371 74.8 99.8711 76.2C99.4044 77.6 98.9711 79.2167 98.5711 81.05C98.2044 82.8833 97.8878 84.9833 97.6211 87.35C97.3544 89.6833 97.1378 92 96.9711 94.3C96.8378 96.6 96.7211 99.05 96.6211 101.65C99.7211 100.183 102.921 99.2 106.221 98.7ZM101.271 134.8C101.538 131.833 101.254 129 100.421 126.3C99.5878 123.633 98.2711 121.333 96.4711 119.4C96.5378 121.867 96.6044 123.583 96.6711 124.55C96.9711 128.45 97.3878 131.433 97.9211 133.5C98.3544 135.133 98.9378 136.283 99.6711 136.95C100.438 137.65 100.938 137.2 101.171 135.6L101.271 134.8ZM94.2711 114.7C94.2378 111.4 94.2878 108.183 94.4211 105.05C91.3544 106.783 88.1544 109.167 84.8211 112.2C88.3544 112.3 91.5044 113.133 94.2711 114.7ZM106.876 95.3C107.042 94.9333 107.309 94.7333 107.676 94.7C108.042 94.6667 108.342 94.7833 108.576 95.05C108.842 95.3167 108.909 95.65 108.776 96.05C107.076 100.317 106.259 104.65 106.326 109.05C106.326 109.617 106.042 109.9 105.476 109.9C104.876 109.9 104.509 109.633 104.376 109.1C104.342 109 104.326 108.9 104.326 108.8C104.259 104.3 105.109 99.8 106.876 95.3ZM110.226 89.55C110.459 90.1167 110.292 90.5667 109.726 90.9L106.176 93C105.942 93.1333 105.692 93.15 105.426 93.05C105.159 92.9167 104.976 92.7333 104.876 92.5C104.642 91.9667 104.809 91.5167 105.376 91.15L108.926 89.05C109.159 88.9167 109.409 88.9167 109.676 89.05C109.942 89.15 110.126 89.3167 110.226 89.55ZM144.834 96.45C145.101 96.15 145.417 96.0333 145.784 96.1C146.184 96.1667 146.451 96.3667 146.584 96.7C146.751 97 146.717 97.3167 146.484 97.65C145.651 98.6833 144.667 99.75 143.534 100.85C142.401 101.95 141.067 103.05 139.534 104.15C138.001 105.217 136.501 106.067 135.034 106.7C133.567 107.3 132.067 107.533 130.534 107.4C129.001 107.233 127.684 106.567 126.584 105.4C125.984 104.733 125.167 103.75 124.134 102.45C123.134 101.15 122.401 100.233 121.934 99.7C121.634 99.4 121.351 99.1667 121.084 99C120.817 98.8 120.584 98.6667 120.384 98.6C120.184 98.5333 119.967 98.55 119.734 98.65C119.501 98.75 119.301 98.85 119.134 98.95C119.001 99.0167 118.817 99.1833 118.584 99.45C118.351 99.7167 118.184 99.9333 118.084 100.1C117.984 100.267 117.801 100.55 117.534 100.95C117.267 101.317 117.084 101.567 116.984 101.7C116.817 101.967 116.367 102.817 115.634 104.25C114.934 105.65 114.201 106.85 113.434 107.85C112.701 108.817 112.001 109.35 111.334 109.45C110.934 109.517 110.617 109.4 110.384 109.1C110.151 108.767 109.984 108.417 109.884 108.05C109.751 107.65 109.701 107.183 109.734 106.65C109.767 106.083 109.801 105.65 109.834 105.35C109.867 105.05 109.951 104.567 110.084 103.9C110.217 103.233 110.301 102.85 110.334 102.75C110.534 101.483 110.917 99.6833 111.484 97.35C112.051 94.9833 112.384 93.5667 112.484 93.1C112.584 92.7333 112.817 92.4833 113.184 92.35C113.551 92.2167 113.884 92.25 114.184 92.45C114.484 92.65 114.584 92.95 114.484 93.35C114.317 94.0833 114.034 95.3 113.634 97C113.234 98.6667 112.934 99.95 112.734 100.85C112.334 102.817 112.084 104.183 111.984 104.95C111.984 105.05 111.984 105.2 111.984 105.4C112.251 104.9 112.584 104.367 112.984 103.8C113.417 103.233 113.867 102.633 114.334 102C114.801 101.367 115.134 100.883 115.334 100.55C115.434 100.417 115.567 100.217 115.734 99.95C115.934 99.6833 116.101 99.45 116.234 99.25C116.367 99.05 116.517 98.8333 116.684 98.6C116.884 98.3333 117.067 98.1 117.234 97.9C117.401 97.7 117.584 97.5 117.784 97.3C117.984 97.1 118.184 96.9167 118.384 96.75C118.617 96.5833 118.834 96.45 119.034 96.35C119.567 96.2167 120.034 96.15 120.434 96.15C120.834 96.15 121.267 96.3 121.734 96.6C122.201 96.9 122.601 97.2167 122.934 97.55C123.301 97.8833 123.684 98.3 124.084 98.8C124.517 99.3 124.867 99.7667 125.134 100.2C125.434 100.6 125.734 101.033 126.034 101.5C126.367 101.967 126.651 102.333 126.884 102.6C128.051 104.033 129.101 104.883 130.034 105.15C130.967 105.383 132.301 105.183 134.034 104.55C138.101 103.05 141.701 100.35 144.834 96.45ZM164.592 96.3C164.892 96 165.208 95.9333 165.542 96.1C165.875 96.2333 166.075 96.4833 166.142 96.85C166.242 97.1833 166.158 97.5167 165.892 97.85C159.025 104.883 153.092 107.8 148.092 106.6C146.325 106.2 144.992 105.433 144.092 104.3C143.192 103.133 142.842 101.85 143.042 100.45C143.208 99.0167 143.858 97.65 144.992 96.35C145.892 95.3833 147.058 94.6 148.492 94C150.625 93.1333 151.675 93.6667 151.642 95.6C151.642 95.6333 151.642 95.6667 151.642 95.7C151.608 97 150.825 98.2333 149.292 99.4C147.758 100.567 146.375 100.95 145.142 100.55C145.008 102.05 145.642 103.167 147.042 103.9C148.442 104.633 149.975 104.85 151.642 104.55C154.008 104.117 156.208 103.2 158.242 101.8C160.308 100.367 162.425 98.5333 164.592 96.3ZM148.742 96C148.275 96.0333 147.758 96.3167 147.192 96.85C146.658 97.3833 146.192 97.9667 145.792 98.6C146.492 98.9333 147.342 98.5333 148.342 97.4C149.008 96.6333 149.192 96.1667 148.892 96C148.858 96 148.808 96 148.742 96Z" fill="#292E36"/>
</svg>
