<svg width="301" height="197" viewBox="0 0 301 197" fill="none" xmlns="http://www.w3.org/2000/svg">
<path d="M150.418 149.851C123.434 149.851 101.465 127.73 101.465 100.524C101.465 73.3178 123.434 51.2129 150.418 51.2129C177.402 51.2129 199.371 73.3335 199.371 100.54C199.371 127.746 177.402 149.851 150.418 149.851ZM150.418 52.7873C124.293 52.7873 103.027 74.1995 103.027 100.54C103.027 126.88 124.293 148.276 150.418 148.276C176.543 148.276 197.809 126.864 197.809 100.524C197.809 74.1837 176.543 52.7873 150.418 52.7873Z" fill="#E1B168"/>
<path d="M150.417 168.57C145.839 168.57 141.261 168.098 136.808 167.185C132.464 166.287 128.214 164.949 124.136 163.217C120.136 161.517 116.277 159.391 112.667 156.951C109.089 154.526 105.73 151.724 102.683 148.638C99.6206 145.568 96.855 142.167 94.4331 138.577C94.1831 138.215 94.2925 137.727 94.6362 137.491C94.9956 137.255 95.48 137.334 95.7144 137.696C98.0737 141.222 100.792 144.529 103.777 147.536C106.761 150.543 110.042 153.283 113.542 155.644C117.058 158.037 120.839 160.1 124.746 161.769C128.73 163.469 132.886 164.76 137.121 165.642C145.808 167.437 155.011 167.437 163.699 165.642C167.933 164.776 172.105 163.469 176.074 161.769C179.98 160.1 183.746 158.037 187.277 155.644C190.777 153.267 194.058 150.527 197.042 147.536C200.027 144.529 202.73 141.222 205.105 137.696C205.355 137.334 205.839 137.239 206.183 137.491C206.543 137.727 206.636 138.231 206.386 138.577C203.964 142.183 201.199 145.568 198.136 148.638C195.089 151.708 191.73 154.511 188.152 156.951C184.542 159.407 180.683 161.517 176.683 163.217C172.605 164.949 168.339 166.287 164.011 167.185C159.574 168.098 154.996 168.57 150.417 168.57Z" fill="#E1B168"/>
<path d="M205.761 63.7131C205.511 63.7131 205.261 63.5871 205.121 63.3667C202.761 59.84 200.043 56.5337 197.058 53.5266C194.074 50.5194 190.793 47.7957 187.293 45.4183C183.761 43.0252 179.996 40.9627 176.089 39.2938C172.105 37.5934 167.949 36.3024 163.714 35.4207C155.027 33.6259 145.824 33.6259 137.136 35.4207C132.902 36.3024 128.73 37.5934 124.761 39.2938C120.855 40.9627 117.074 43.0252 113.558 45.4183C110.074 47.7957 106.777 50.5194 103.792 53.5266C100.808 56.5337 98.105 59.84 95.73 63.3667C95.4956 63.7288 94.9956 63.8233 94.6519 63.5714C94.3081 63.3195 94.1987 62.8314 94.4487 62.485C96.8706 58.8796 99.6362 55.4946 102.699 52.4087C105.761 49.3229 109.121 46.5361 112.683 44.0958C116.292 41.6397 120.152 39.5299 124.152 37.8296C128.23 36.0977 132.496 34.7594 136.824 33.862C145.73 32.0199 155.136 32.0199 164.043 33.862C168.386 34.7594 172.636 36.0977 176.714 37.8296C180.714 39.5299 184.574 41.6397 188.183 44.0958C191.761 46.5361 195.121 49.3229 198.168 52.4087C201.23 55.4946 203.996 58.8796 206.418 62.485C206.668 62.8472 206.558 63.3352 206.214 63.5714C206.058 63.6816 205.902 63.7131 205.761 63.7131Z" fill="#E1B168"/>
<path d="M76.7773 58.9114C76.8398 59.2893 76.7617 59.6987 76.543 60.171C76.3086 60.6748 75.9805 61.0369 75.5274 61.2258C75.0742 61.4148 74.4492 61.4305 73.6367 61.2573L71.6055 60.8165C70.9024 60.659 70.3399 60.5803 69.9336 60.5488C69.5274 60.5173 69.168 60.5961 68.8399 60.7535C68.5117 60.9267 68.2461 61.2416 68.0274 61.7139L67.2305 63.493L71.4805 65.4453C71.9492 65.6657 72.293 65.7759 72.543 65.7917C72.793 65.8074 72.9961 65.7444 73.168 65.5713C73.3399 65.3981 73.5273 65.0989 73.7617 64.6581L74.1367 64.8313C73.8399 65.3823 73.4648 66.1695 73.0117 67.1772C72.5273 68.2478 72.1836 69.0507 71.9961 69.586L71.6211 69.4128C71.8086 68.9563 71.9023 68.6099 71.918 68.3737C71.9336 68.1376 71.8555 67.9329 71.668 67.7597C71.4961 67.5865 71.168 67.3976 70.7149 67.1772L61.543 62.9735C61.0742 62.753 60.7305 62.6428 60.4805 62.6271C60.2305 62.6113 60.0273 62.6743 59.8555 62.8475C59.6836 63.0207 59.4961 63.3198 59.2617 63.7607L58.8867 63.5875C59.1523 63.0837 59.5117 62.3279 59.9648 61.336C60.1836 60.848 60.418 60.3127 60.668 59.7301C60.918 59.1319 61.0898 58.7382 61.1992 58.5178C61.6367 57.5417 62.1523 56.786 62.7305 56.2507C63.3086 55.6996 63.918 55.369 64.5586 55.2588C65.1992 55.1486 65.8242 55.2273 66.4336 55.5107C66.918 55.7311 67.3555 56.0617 67.7305 56.5183C68.1211 56.9749 68.3867 57.5574 68.5273 58.2817C68.668 59.0059 68.6055 59.8246 68.3555 60.7693L68.4961 60.5646C68.8398 60.045 69.1836 59.6672 69.5117 59.4152C69.8399 59.1633 70.2149 59.0216 70.6211 58.9587C71.0274 58.9114 71.5274 58.9429 72.1055 59.0689L74.1992 59.4625C74.6055 59.557 74.9492 59.6199 75.1992 59.6357C75.4492 59.6514 75.6524 59.6199 75.8086 59.5569C75.9649 59.494 76.0742 59.368 76.1524 59.2106C76.2461 59.0059 76.2774 58.817 76.2305 58.628C76.1836 58.4391 76.0742 58.1872 75.918 57.8723L76.2461 57.6834C76.543 58.1242 76.7148 58.5493 76.7773 58.9114ZM67.918 59.9191C67.8711 59.3208 67.6523 58.8327 67.293 58.4549C66.9336 58.0612 66.4336 57.7306 65.8086 57.4472C64.793 56.9906 63.918 56.8804 63.1836 57.1166C62.4492 57.3685 61.8399 58.0298 61.3398 59.1319C61.168 59.5255 61.0742 59.8246 61.0742 60.0608C61.0742 60.2969 61.168 60.5016 61.3555 60.6748C61.543 60.848 61.8555 61.0369 62.293 61.2416L66.8398 63.3198L67.4023 62.0603C67.8086 61.2258 67.9805 60.5174 67.918 59.9191Z" fill="#E1B168"/>
<path d="M83.2461 44.5857C83.8711 45.0423 84.6055 45.4989 85.4336 45.9869C84.8711 46.7112 83.9492 47.9707 82.6836 49.7656C81.168 51.891 80.043 53.5127 79.3086 54.6305L78.9805 54.3944C79.2461 53.985 79.418 53.6544 79.4648 53.434C79.5117 53.2136 79.4805 52.9774 79.3398 52.7885C79.1992 52.5838 78.918 52.3319 78.5117 52.0327L70.3086 46.1286C69.8867 45.8295 69.5742 45.6406 69.3398 45.5776C69.1055 45.5146 68.8867 45.5461 68.6836 45.6721C68.4805 45.798 68.2305 46.0657 67.9336 46.4593L67.6055 46.2231C68.4023 45.1525 69.5742 43.5623 71.0742 41.4211C72.2305 39.7837 73.043 38.6186 73.4961 37.9102C74.168 38.5084 74.793 39.0123 75.3711 39.4373C75.8086 39.7522 76.1524 39.9727 76.4336 40.1301L76.168 40.508C75.3867 40.0671 74.793 39.7995 74.3555 39.6578C73.918 39.5161 73.5117 39.5476 73.1523 39.7207C72.793 39.8939 72.4023 40.2718 71.9805 40.8701L70.9961 42.2556C70.7148 42.6492 70.543 42.9641 70.4805 43.2002C70.418 43.4206 70.4492 43.6411 70.5898 43.8457C70.7305 44.0504 70.9961 44.3023 71.418 44.6015L75.3086 47.4039L76.0898 46.3018C76.4805 45.7508 76.5898 45.247 76.3867 44.8376C76.1836 44.4125 75.9336 44.0504 75.6211 43.767C75.3086 43.4679 75.1055 43.2789 75.0117 43.2002L75.2773 42.8224C75.793 43.2475 76.293 43.6411 76.793 44.0032L77.5898 44.57C78.1523 44.9793 78.9492 45.4989 80.0117 46.1601L79.7461 46.538C79.668 46.4908 79.3711 46.3333 78.8867 46.0499C78.3867 45.7665 77.9336 45.6721 77.5273 45.7508C77.1211 45.8295 76.7461 46.0972 76.4336 46.5537L75.6523 47.6558L79.6211 50.5213C80.0273 50.8204 80.3555 51.0094 80.5899 51.0723C80.8242 51.1353 81.043 51.1038 81.2305 50.9621C81.418 50.8204 81.668 50.5528 81.9492 50.1592L82.8086 48.9469C83.3086 48.2541 83.5899 47.6558 83.6524 47.1678C83.7305 46.6797 83.6211 46.2074 83.3242 45.7508C83.0274 45.2942 82.5274 44.7589 81.8086 44.0976L82.0742 43.7198C82.3711 43.9087 82.7461 44.2236 83.2461 44.5857Z" fill="#E1B168"/>
<path d="M89.4029 39.5627C90.4186 39.7674 91.3561 39.4525 92.2154 38.6023C92.5436 38.2717 92.7936 37.9095 92.9498 37.4844C93.1061 37.0593 93.1217 36.6185 93.0279 36.1462C92.9342 35.6738 92.6529 35.2173 92.2311 34.7922C91.8717 34.4143 91.4498 34.1624 90.9811 34.0522C90.5123 33.9262 89.9967 33.8948 89.4498 33.9577C88.9029 34.0207 88.2154 34.1467 87.3873 34.3356C86.4654 34.556 85.6998 34.6977 85.0904 34.7607C84.4654 34.8237 83.8717 34.7764 83.2623 34.619C82.6686 34.4615 82.1217 34.1152 81.6217 33.5956C81.0904 33.0446 80.7623 32.4463 80.6373 31.8323C80.5123 31.2025 80.5748 30.5885 80.8092 30.0059C81.0436 29.4234 81.4029 28.8723 81.9029 28.3843C82.1998 28.0851 82.4811 27.8647 82.7467 27.7073C83.0123 27.5498 83.2467 27.4396 83.4654 27.3609C83.6842 27.2979 83.9186 27.2349 84.1998 27.1877C84.5592 27.109 84.7936 27.0145 84.9029 26.9043C84.9967 26.8098 85.0123 26.6996 84.9654 26.5422C84.9186 26.4005 84.7936 26.1958 84.6061 25.9439L84.9342 25.6133C85.4342 26.2273 86.3717 27.2507 87.7467 28.6834L87.4186 29.014C86.9029 28.5417 86.3404 28.1953 85.7623 27.9434C85.1686 27.6915 84.5748 27.5971 83.9811 27.6758C83.3873 27.7545 82.8248 28.0379 82.3092 28.526C81.9654 28.8566 81.7311 29.2345 81.5904 29.6438C81.4654 30.0532 81.4342 30.4625 81.5436 30.8719C81.6529 31.2812 81.8561 31.6433 82.1686 31.9897C82.6842 32.525 83.2467 32.7927 83.8873 32.8084C84.5123 32.8241 85.1686 32.7454 85.8404 32.6037C86.5123 32.462 86.9654 32.3518 87.1998 32.2888C88.1842 32.0842 88.9967 31.9425 89.6217 31.8795C90.2467 31.8165 90.8561 31.8637 91.4342 32.0369C92.0123 32.2101 92.5436 32.5407 93.0123 33.0288C93.5904 33.6271 93.9498 34.2726 94.0748 34.9654C94.1998 35.6581 94.1373 36.3351 93.8717 36.9964C93.6061 37.6576 93.1842 38.2874 92.6061 38.8542C92.1373 39.3108 91.7154 39.6257 91.3248 39.8303C90.9342 40.0193 90.5279 40.161 90.0904 40.2554C89.7467 40.3341 89.5123 40.4286 89.3873 40.5388C89.2936 40.6333 89.2779 40.7435 89.3248 40.9009C89.3717 41.0426 89.4967 41.2473 89.6842 41.4992L89.3561 41.8298C88.8717 41.2631 87.7623 40.0665 86.0279 38.2559L86.3561 37.8623C87.3717 38.7912 88.3873 39.358 89.4029 39.5627Z" fill="#E1B168"/>
<path d="M92.9023 22.3378C92.4648 21.6766 91.9336 20.9681 91.3398 20.2438C92.293 19.6456 93.9023 18.5907 96.1367 17.0792C98.3711 15.5835 99.9336 14.4972 100.84 13.8359C101.293 14.7019 101.746 15.4418 102.168 16.0874C102.543 16.6542 102.871 17.1107 103.137 17.4571L102.746 17.7248C102.074 16.9061 101.527 16.3235 101.121 15.9929C100.699 15.6623 100.262 15.5048 99.793 15.5363C99.3242 15.5678 98.7461 15.8197 98.043 16.292L97.1211 16.9061L103.543 26.5888C103.855 27.0611 104.137 27.376 104.355 27.5334C104.59 27.6909 104.855 27.7381 105.137 27.6594C105.418 27.5807 105.824 27.3917 106.34 27.0768L106.559 27.4232C105.949 27.7853 105.105 28.3364 104.043 29.0449C102.918 29.8006 102.09 30.3831 101.574 30.7767L101.355 30.4304C101.84 30.084 102.184 29.7849 102.355 29.5487C102.527 29.3125 102.59 29.0449 102.527 28.7772C102.465 28.4938 102.293 28.1317 101.98 27.6594L95.5586 17.9767L94.6367 18.5907C93.9336 19.063 93.4805 19.5039 93.2773 19.929C93.0742 20.3541 93.043 20.8264 93.1836 21.3302C93.3242 21.8498 93.6523 22.574 94.1523 23.5186L93.7617 23.7863C93.5742 23.3927 93.2773 22.9204 92.9023 22.3378Z" fill="#E1B168"/>
<path d="M123.277 18.8118L123.434 19.1897C122.902 19.3786 122.23 19.6463 121.402 20.0084C120.34 20.465 119.559 20.8271 119.043 21.0947L118.887 20.7169C119.355 20.4965 119.668 20.2918 119.824 20.1029C119.98 19.9139 120.012 19.6935 119.902 19.4416C119.809 19.2212 119.605 18.9693 119.309 18.6544L116.84 16.0723L112.34 18.0246L112.418 20.3548C112.434 21.0947 112.543 21.6615 112.699 22.0551C112.871 22.4488 113.121 22.6849 113.465 22.7321C113.809 22.7951 114.246 22.7007 114.809 22.4802L114.965 22.8581C114.246 23.1258 113.512 23.4249 112.793 23.7398C112.23 23.9759 111.777 24.1964 111.418 24.401L111.262 24.0232C111.824 23.6138 112.074 22.8581 112.027 21.756L111.559 8.45213L111.855 8.32617L121.449 18.1821C122.105 18.8118 122.715 19.0323 123.277 18.8118ZM112.074 11.0499L112.324 17.5838L116.559 15.7575L112.074 11.0499Z" fill="#E1B168"/>
<path d="M135.73 2.05893C135.527 2.21638 135.418 2.4368 135.387 2.72019C135.355 3.00359 135.402 3.3972 135.512 3.91675L136.762 9.9468C136.965 10.9072 137.074 11.7416 137.09 12.4501C137.105 13.1586 137.027 13.8041 136.824 14.3552C136.605 15.0007 136.215 15.5517 135.637 16.0241C135.059 16.4964 134.371 16.8113 133.574 16.9845C132.121 17.2836 130.934 17.1577 130.012 16.5909C129.543 16.3075 129.152 15.9768 128.855 15.599C128.559 15.2211 128.309 14.7645 128.105 14.182C127.902 13.6152 127.699 12.8595 127.512 11.9148L126.215 5.61713C126.105 5.11332 125.996 4.7512 125.871 4.54652C125.746 4.34185 125.559 4.2159 125.324 4.16866C125.09 4.13717 124.73 4.15292 124.246 4.23164L124.168 3.83803C124.746 3.75931 125.59 3.60187 126.73 3.36571C127.793 3.14529 128.637 2.94061 129.262 2.78317L129.34 3.17678C128.871 3.30273 128.527 3.42868 128.324 3.55464C128.121 3.68059 128.012 3.86952 127.98 4.12143C127.949 4.37334 127.98 4.73546 128.09 5.23927L129.465 11.8676C129.684 12.9382 129.934 13.8041 130.23 14.4811C130.512 15.1581 130.934 15.662 131.48 15.9926C132.027 16.3232 132.746 16.4019 133.637 16.213C135.043 15.9139 135.934 15.2526 136.324 14.2292C136.715 13.2059 136.73 11.8676 136.387 10.2302L135.09 3.97973C134.98 3.49166 134.855 3.1138 134.684 2.87764C134.512 2.64147 134.293 2.48403 134.012 2.42105C133.73 2.35808 133.355 2.35808 132.887 2.4368L132.762 2.04319C133.246 1.98021 133.934 1.85426 134.809 1.68107C135.605 1.50789 136.215 1.36619 136.637 1.24023L136.715 1.63384C136.262 1.75979 135.934 1.88575 135.73 2.05893Z" fill="#E1B168"/>
<path d="M155.949 14.8599C155.637 15.0646 155.23 15.1748 154.73 15.1906C154.168 15.2063 153.715 15.0489 153.355 14.7182C152.996 14.3876 152.715 13.8208 152.512 13.0021L152.027 10.9711C151.855 10.2626 151.699 9.71156 151.543 9.3337C151.402 8.95584 151.168 8.6567 150.887 8.42053C150.605 8.18437 150.199 8.0899 149.684 8.0899L147.762 8.13714L147.84 12.8447C147.855 13.3642 147.902 13.7263 147.98 13.9625C148.074 14.1987 148.215 14.3561 148.449 14.4348C148.684 14.5136 149.027 14.5608 149.512 14.5765V14.9859C148.887 14.9544 148.027 14.9544 146.934 14.9701C145.762 14.9859 144.902 15.0174 144.34 15.0646V14.6552C144.824 14.6238 145.184 14.5608 145.402 14.4821C145.621 14.3876 145.777 14.2302 145.855 13.994C145.934 13.7578 145.965 13.38 145.965 12.8762L145.809 2.72112C145.809 2.20156 145.746 1.83944 145.668 1.60328C145.59 1.36711 145.434 1.20967 145.199 1.13095C144.965 1.05223 144.621 1.005 144.137 0.989252V0.579902C144.699 0.61139 145.527 0.61139 146.621 0.595646C147.152 0.579902 147.73 0.564158 148.371 0.548414C149.012 0.532669 149.418 0.501181 149.652 0.501181C150.715 0.485437 151.605 0.627135 152.34 0.926275C153.074 1.22542 153.637 1.63477 154.012 2.17007C154.387 2.70537 154.59 3.30366 154.59 3.98066C154.605 4.51596 154.48 5.05127 154.246 5.60231C154.012 6.15336 153.59 6.64143 153.012 7.08227C152.449 7.52311 151.668 7.82225 150.73 7.97969L150.98 8.01118C151.59 8.10565 152.074 8.24735 152.449 8.43628C152.809 8.64095 153.105 8.9086 153.324 9.25498C153.543 9.60135 153.73 10.0737 153.871 10.6562L154.418 12.7345C154.512 13.1595 154.605 13.4744 154.699 13.7106C154.793 13.9468 154.902 14.1199 155.027 14.2302C155.152 14.3404 155.309 14.4033 155.496 14.3876C155.715 14.3876 155.902 14.3246 156.043 14.1987C156.184 14.0727 156.371 13.868 156.59 13.5846L156.902 13.8051C156.574 14.3089 156.262 14.6395 155.949 14.8599ZM151.262 7.22397C151.777 6.92483 152.121 6.53122 152.309 6.02741C152.496 5.53934 152.59 4.94106 152.574 4.24831C152.559 3.13047 152.277 2.28028 151.746 1.72923C151.215 1.16244 150.34 0.894787 149.152 0.910531C148.73 0.910531 148.418 0.973508 148.199 1.06797C147.98 1.16244 147.84 1.33563 147.777 1.58753C147.699 1.83944 147.668 2.20156 147.668 2.68963L147.746 7.72779L149.121 7.71204C150.043 7.68055 150.746 7.52311 151.262 7.22397Z" fill="#E1B168"/>
<path d="M172.84 17.3475L172.762 17.7568C172.23 17.6151 171.512 17.4577 170.637 17.2845C169.496 17.0641 168.652 16.9224 168.074 16.8437L168.152 16.4343C168.668 16.513 169.043 16.5288 169.277 16.4658C169.512 16.4028 169.668 16.2454 169.715 15.9777C169.762 15.7416 169.746 15.4267 169.668 14.9858L169.074 11.4434L164.262 10.5145L163.027 12.4825C162.637 13.1123 162.387 13.6318 162.309 14.0569C162.23 14.482 162.309 14.8127 162.559 15.0488C162.809 15.285 163.23 15.4739 163.809 15.5999L163.73 16.0092C162.98 15.8203 162.215 15.6471 161.449 15.5054C160.855 15.3952 160.355 15.3165 159.949 15.2692L160.027 14.8599C160.715 14.8442 161.355 14.3561 161.934 13.4114L168.965 2.1543L169.293 2.21727L171.73 15.8045C171.871 16.6862 172.246 17.2058 172.84 17.3475ZM167.902 4.57891L164.465 10.1366L168.98 11.0183L167.902 4.57891Z" fill="#E1B168"/>
<path d="M192.371 10.4836C192.121 10.4993 191.902 10.6253 191.715 10.83C191.527 11.0504 191.34 11.3968 191.152 11.8848L186.543 23.1734L186.105 23.0003L183.23 7.44495L179.152 17.4425C178.949 17.9306 178.84 18.3085 178.824 18.5919C178.809 18.8753 178.902 19.1114 179.09 19.3161C179.277 19.5208 179.621 19.7412 180.105 19.9616L179.949 20.3395C179.512 20.1191 178.887 19.8357 178.059 19.4893C177.309 19.1744 176.73 18.954 176.293 18.828L176.449 18.4502C176.887 18.6076 177.246 18.6863 177.496 18.6548C177.746 18.6391 177.965 18.5131 178.152 18.3085C178.34 18.1038 178.527 17.7417 178.715 17.2536L182.465 8.05898C182.652 7.58665 182.762 7.22453 182.777 6.97262C182.793 6.72071 182.715 6.51604 182.543 6.3586C182.371 6.20115 182.059 6.01222 181.621 5.80755L181.777 5.42969C182.168 5.63436 182.746 5.90201 183.496 6.20115C184.059 6.43732 184.559 6.62625 184.98 6.7522L187.402 19.8042L190.715 11.7116C190.918 11.2236 191.027 10.8457 191.043 10.5623C191.059 10.2789 190.98 10.0427 190.777 9.83807C190.59 9.6334 190.246 9.41298 189.762 9.19256L189.918 8.8147C190.355 9.03512 190.98 9.31851 191.809 9.66489C192.559 9.97977 193.137 10.2002 193.574 10.3261L193.418 10.704C192.98 10.5466 192.637 10.4678 192.371 10.4836Z" fill="#E1B168"/>
<path d="M198.965 16.2769C199.402 15.6157 199.855 14.86 200.293 14.0255C201.199 14.6868 202.777 15.7889 205.012 17.3003C207.23 18.8118 208.824 19.8666 209.777 20.4649C209.168 21.2206 208.637 21.9134 208.215 22.5589C207.84 23.1257 207.543 23.598 207.34 23.9916L206.949 23.724C207.449 22.7793 207.777 22.0551 207.918 21.5513C208.059 21.0317 208.043 20.5751 207.824 20.15C207.621 19.7249 207.168 19.2683 206.465 18.796L205.559 18.182L199.105 27.8332C198.793 28.3055 198.605 28.6834 198.543 28.951C198.48 29.2187 198.543 29.4864 198.715 29.7225C198.887 29.9587 199.215 30.2578 199.715 30.6199L199.48 30.9663C198.902 30.5255 198.09 29.9587 197.043 29.2344C195.918 28.4787 195.074 27.9277 194.512 27.597L194.746 27.2507C195.262 27.5656 195.652 27.7702 195.934 27.849C196.215 27.9277 196.48 27.8804 196.715 27.723C196.949 27.5656 197.23 27.2507 197.543 26.7783L203.996 17.1271L203.09 16.5131C202.387 16.0408 201.809 15.7889 201.34 15.7574C200.871 15.7259 200.434 15.8676 200.012 16.1982C199.59 16.5288 199.043 17.1114 198.371 17.9301L197.98 17.6624C198.246 17.3003 198.574 16.8437 198.965 16.2769Z" fill="#E1B168"/>
<path d="M213.715 43.2001L213.434 43.4992C213.059 43.0741 212.559 42.5546 211.918 41.9248C211.09 41.1061 210.449 40.5078 210.012 40.1457L210.293 39.8466C210.684 40.1929 210.98 40.4134 211.215 40.4921C211.449 40.5708 211.652 40.5078 211.855 40.3189C212.012 40.1457 212.184 39.8623 212.355 39.4687L213.793 36.1939L210.293 32.7459L208.199 33.7063C207.527 34.0055 207.043 34.3203 206.746 34.6195C206.449 34.9344 206.34 35.2493 206.418 35.5956C206.496 35.942 206.746 36.3199 207.168 36.745L206.887 37.0441C206.355 36.4773 205.824 35.9105 205.262 35.3595C204.824 34.9344 204.449 34.588 204.137 34.3361L204.418 34.0369C205.012 34.3991 205.793 34.3518 206.793 33.8952L218.809 28.3848L219.043 28.6209L213.652 41.3108C213.262 42.1137 213.293 42.7593 213.715 43.2001ZM216.559 29.8017L210.652 32.5255L213.949 35.7688L216.559 29.8017Z" fill="#E1B168"/>
<path d="M224.98 39.0593C225.621 38.6027 226.309 38.0516 227.012 37.4219C227.637 38.3665 228.715 39.9567 230.277 42.1766C231.824 44.3808 232.949 45.9238 233.621 46.8369C232.777 47.325 232.043 47.7973 231.418 48.2382C230.855 48.6318 230.418 48.9781 230.09 49.2615L229.824 48.8837C230.621 48.1909 231.184 47.6241 231.496 47.199C231.809 46.774 231.949 46.3174 231.902 45.845C231.855 45.3727 231.59 44.7902 231.105 44.0974L230.465 43.2L221.043 49.9385C220.59 50.2692 220.277 50.5526 220.121 50.7887C219.965 51.0249 219.934 51.2925 220.012 51.5759C220.09 51.8593 220.293 52.2529 220.637 52.7568L220.309 52.9929C219.934 52.3789 219.371 51.5602 218.637 50.5053C217.855 49.3875 217.262 48.5845 216.855 48.065L217.184 47.8288C217.543 48.3169 217.855 48.6318 218.09 48.805C218.324 48.9781 218.59 49.0254 218.871 48.9624C219.137 48.8994 219.512 48.6947 219.965 48.3799L229.387 41.6413L228.746 40.7439C228.262 40.0512 227.809 39.6103 227.371 39.4056C226.949 39.201 226.48 39.1852 225.965 39.3584C225.465 39.5159 224.746 39.8622 223.824 40.3818L223.559 40.0039C223.965 39.752 224.418 39.4529 224.98 39.0593Z" fill="#E1B168"/>
<path d="M230.965 67.9338C230.262 68.2487 229.496 68.658 228.652 69.1461C228.309 68.2802 227.684 66.8474 226.777 64.8479C225.699 62.4705 224.871 60.6757 224.293 59.4634L224.668 59.2902C224.887 59.7311 225.09 60.0302 225.262 60.2034C225.434 60.3766 225.637 60.4395 225.887 60.4238C226.137 60.4081 226.48 60.2821 226.949 60.0774L236.121 55.8737C236.59 55.669 236.902 55.4644 237.074 55.2912C237.246 55.118 237.34 54.9133 237.324 54.6772C237.309 54.441 237.215 54.0946 237.027 53.638L237.402 53.4648C237.918 54.7086 238.715 56.5035 239.777 58.8966C240.605 60.7229 241.199 62.014 241.59 62.7697C240.746 63.0531 239.996 63.3522 239.355 63.6356C238.871 63.856 238.496 64.045 238.23 64.2182L238.043 63.7931C238.809 63.3365 239.34 62.9429 239.684 62.628C240.012 62.3131 240.199 61.951 240.23 61.5416C240.262 61.1323 240.137 60.6127 239.84 59.9515L239.137 58.4085C238.934 57.952 238.746 57.6528 238.59 57.4796C238.434 57.3064 238.23 57.2277 237.98 57.2592C237.746 57.275 237.387 57.4009 236.918 57.6056L232.559 59.6051L233.121 60.8489C233.402 61.4787 233.777 61.8093 234.23 61.8408C234.699 61.8723 235.137 61.825 235.543 61.6991C235.949 61.5731 236.215 61.4944 236.34 61.4629L236.527 61.888C235.902 62.1242 235.309 62.3761 234.762 62.628L233.887 63.0373C233.262 63.3207 232.402 63.7616 231.309 64.3441L231.121 63.919C231.199 63.8718 231.48 63.6986 231.965 63.3995C232.449 63.1003 232.762 62.7697 232.902 62.3603C233.043 61.951 232.996 61.5102 232.762 61.0063L232.199 59.7625L227.762 61.7935C227.293 61.9982 226.98 62.2029 226.809 62.3603C226.637 62.5178 226.559 62.7382 226.574 62.9744C226.59 63.2105 226.699 63.5569 226.902 63.9977L227.512 65.3675C227.855 66.139 228.23 66.69 228.621 67.0049C229.012 67.3198 229.465 67.4615 229.996 67.43C230.527 67.3985 231.246 67.2411 232.168 66.9419L232.355 67.367C231.98 67.493 231.527 67.6819 230.965 67.9338Z" fill="#E1B168"/>
<path d="M76.3398 141.033L76.7617 142.04L68.6992 142.67L68.2773 141.663L73.3242 137.333L66.7148 137.963L66.293 136.955L72.3242 131.539L72.7617 132.578L67.543 137.034L74.3398 136.325L74.7461 137.301L69.5273 141.757L76.3398 141.033Z" fill="#E1B168"/>
<path d="M78.0273 144.135L80.6992 148.764L79.8711 149.252L77.7148 145.536L75.668 146.733L77.5898 150.055L76.7617 150.543L74.8398 147.221L72.7305 148.464L74.9492 152.29L74.1211 152.778L71.3711 148.039L78.0273 144.135Z" fill="#E1B168"/>
<path d="M84.2139 155.785C84.1202 155.375 83.9639 154.997 83.7139 154.667C83.4014 154.226 82.9952 153.895 82.5108 153.691C82.0264 153.486 81.5421 153.392 81.0108 153.455C80.4796 153.517 80.0108 153.691 79.5733 154.021C79.1514 154.336 78.8233 154.73 78.6202 155.218C78.4171 155.706 78.339 156.21 78.3858 156.729C78.4483 157.249 78.6202 157.737 78.9483 158.178C79.1827 158.508 79.4796 158.776 79.839 158.996C80.1983 159.217 80.5889 159.359 80.9952 159.437L80.8077 160.366C80.2764 160.272 79.7608 160.083 79.2921 159.799C78.8233 159.516 78.4327 159.154 78.1202 158.729C77.6827 158.131 77.4327 157.485 77.3546 156.792C77.2765 156.1 77.3702 155.423 77.6515 154.777C77.9327 154.132 78.3546 153.596 78.9327 153.171C79.5108 152.746 80.1358 152.494 80.8233 152.431C81.5108 152.368 82.1827 152.478 82.8077 152.778C83.4483 153.077 83.9796 153.517 84.4171 154.116C84.7296 154.541 84.9483 155.029 85.0889 155.548C85.2296 156.068 85.2452 156.588 85.1671 157.107L84.1983 157.044C84.3233 156.619 84.3077 156.21 84.2139 155.785Z" fill="#E1B168"/>
<path d="M91.0739 162.807C91.2301 163.5 91.2145 164.177 91.027 164.854C90.8239 165.531 90.4645 166.098 89.9332 166.586C89.402 167.074 88.8082 167.389 88.1207 167.531C87.4332 167.672 86.7614 167.641 86.0895 167.42C85.4176 167.2 84.8395 166.806 84.3395 166.271C83.8395 165.736 83.5114 165.106 83.3551 164.413C83.1989 163.721 83.2145 163.028 83.4176 162.367C83.6207 161.69 83.9801 161.107 84.5114 160.619C85.0426 160.131 85.6364 159.816 86.3239 159.674C86.9957 159.533 87.6832 159.58 88.3395 159.8C89.0114 160.021 89.5895 160.414 90.0895 160.965C90.5739 161.501 90.902 162.115 91.0739 162.807ZM88.1051 160.761C87.6051 160.603 87.0895 160.572 86.5895 160.682C86.0739 160.792 85.6207 161.028 85.2301 161.39C84.8395 161.753 84.5582 162.193 84.402 162.697C84.2457 163.201 84.2301 163.721 84.3395 164.24C84.4489 164.76 84.6832 165.216 85.0426 165.61C85.402 166.004 85.8239 166.271 86.3239 166.429C86.8239 166.586 87.3239 166.602 87.8395 166.492C88.3551 166.381 88.8082 166.145 89.2145 165.783C89.6207 165.421 89.8864 164.98 90.0426 164.476C90.1989 163.972 90.2145 163.469 90.1051 162.949C89.9957 162.43 89.7614 161.989 89.402 161.595C89.027 161.202 88.6051 160.934 88.1051 160.761Z" fill="#E1B168"/>
<path d="M94.8555 165.924L95.6367 166.632L91.1836 171.67L93.6836 173.906L93.043 174.63L89.7617 171.686L94.8555 165.924Z" fill="#E1B168"/>
<path d="M100.262 170.6L104.543 173.78L103.98 174.551L100.543 172.001L99.1367 173.922L102.199 176.205L101.637 176.976L98.5586 174.693L97.1055 176.677L100.637 179.306L100.074 180.078L95.6992 176.819L100.262 170.6Z" fill="#E1B168"/>
<path d="M110.09 177.324L115.371 180.158L114.918 181.008L112.73 179.843L109.574 185.795L108.652 185.291L111.809 179.339L109.637 178.174L110.09 177.324Z" fill="#E1B168"/>
<path d="M122.043 183.558C122.48 184.109 122.762 184.739 122.855 185.432C122.965 186.124 122.871 186.801 122.605 187.463C122.34 188.124 121.918 188.675 121.355 189.1C120.793 189.525 120.168 189.777 119.465 189.871C118.762 189.966 118.074 189.856 117.387 189.572C116.699 189.289 116.152 188.864 115.715 188.313C115.277 187.762 115.012 187.132 114.902 186.423C114.793 185.731 114.887 185.038 115.152 184.377C115.418 183.715 115.84 183.164 116.387 182.755C116.933 182.346 117.574 182.094 118.262 181.999C118.965 181.921 119.652 182.015 120.34 182.298C121.043 182.582 121.605 182.991 122.043 183.558ZM118.496 182.975C117.98 183.038 117.512 183.243 117.09 183.558C116.668 183.873 116.355 184.282 116.152 184.786C115.949 185.29 115.887 185.809 115.965 186.329C116.043 186.849 116.246 187.321 116.558 187.746C116.887 188.171 117.293 188.486 117.777 188.691C118.277 188.895 118.777 188.958 119.293 188.88C119.808 188.801 120.277 188.612 120.699 188.281C121.121 187.966 121.433 187.557 121.637 187.053C121.84 186.549 121.902 186.046 121.824 185.526C121.746 185.006 121.558 184.534 121.23 184.125C120.902 183.715 120.512 183.401 120.027 183.196C119.527 182.975 119.012 182.912 118.496 182.975Z" fill="#E1B168"/>
<path d="M136.059 187.605C136.59 188.078 136.965 188.644 137.184 189.306C137.402 189.967 137.434 190.644 137.277 191.352C137.121 192.061 136.809 192.659 136.324 193.179C135.84 193.698 135.262 194.06 134.59 194.265C133.918 194.47 133.215 194.501 132.496 194.328C131.777 194.171 131.152 193.856 130.621 193.383C130.09 192.911 129.715 192.329 129.496 191.667C129.277 190.99 129.246 190.313 129.402 189.605C129.559 188.896 129.871 188.298 130.355 187.794C130.84 187.29 131.402 186.928 132.074 186.724C132.746 186.519 133.449 186.503 134.168 186.661C134.902 186.818 135.527 187.133 136.059 187.605ZM132.465 187.652C131.965 187.81 131.527 188.078 131.168 188.471C130.809 188.865 130.574 189.306 130.449 189.841C130.324 190.376 130.355 190.896 130.527 191.4C130.699 191.903 130.965 192.329 131.355 192.691C131.746 193.053 132.199 193.289 132.715 193.399C133.23 193.509 133.746 193.494 134.23 193.32C134.73 193.163 135.152 192.88 135.512 192.502C135.871 192.108 136.105 191.652 136.23 191.132C136.355 190.597 136.324 190.093 136.168 189.589C136.012 189.085 135.73 188.66 135.355 188.314C134.98 187.967 134.527 187.715 134.012 187.605C133.48 187.479 132.965 187.495 132.465 187.652Z" fill="#E1B168"/>
<path d="M141.731 194.343C142.075 194.784 142.59 195.036 143.278 195.099C143.95 195.162 144.497 195.02 144.919 194.658C145.34 194.296 145.59 193.761 145.669 193.052L146.122 188.518L147.169 188.628L146.715 193.162C146.622 194.17 146.247 194.926 145.622 195.43C144.997 195.949 144.184 196.154 143.184 196.044C142.169 195.949 141.419 195.571 140.903 194.942C140.387 194.312 140.184 193.493 140.278 192.501L140.731 187.967L141.778 188.077L141.325 192.611C141.247 193.336 141.372 193.902 141.731 194.343Z" fill="#E1B168"/>
<path d="M155.559 196.422L153.996 194.029C153.824 194.045 153.684 194.061 153.574 194.061L151.621 194.092L151.668 196.501L150.621 196.517L150.496 188.802L153.496 188.755C154.465 188.739 155.215 188.959 155.762 189.4C156.293 189.841 156.574 190.487 156.59 191.305C156.605 191.935 156.465 192.455 156.184 192.895C155.902 193.321 155.496 193.635 154.965 193.84L156.793 196.422H155.559ZM153.559 193.084C154.215 193.069 154.715 192.927 155.059 192.628C155.402 192.329 155.574 191.904 155.559 191.337C155.543 190.786 155.371 190.376 155.012 190.093C154.652 189.81 154.152 189.684 153.496 189.699L151.543 189.731L151.605 193.132L153.559 193.084Z" fill="#E1B168"/>
<path d="M170.246 194.768L168.34 192.642C168.168 192.689 168.027 192.721 167.918 192.737L165.996 193.067L166.402 195.429L165.371 195.602L164.09 187.998L167.043 187.494C167.996 187.336 168.777 187.431 169.371 187.777C169.965 188.123 170.34 188.722 170.48 189.54C170.59 190.155 170.527 190.706 170.324 191.162C170.105 191.634 169.762 192.012 169.262 192.28L171.449 194.547L170.246 194.768ZM167.762 191.792C168.402 191.682 168.887 191.446 169.184 191.115C169.48 190.769 169.574 190.312 169.48 189.761C169.387 189.21 169.152 188.832 168.762 188.612C168.371 188.391 167.855 188.344 167.199 188.454L165.277 188.785L165.84 192.123L167.762 191.792Z" fill="#E1B168"/>
<path d="M173.152 186.234L178.277 184.785L178.543 185.714L174.434 186.879L175.074 189.178L178.746 188.139L179.012 189.068L175.34 190.107L175.996 192.468L180.23 191.272L180.496 192.201L175.246 193.681L173.152 186.234Z" fill="#E1B168"/>
<path d="M184.792 183.542C184.402 183.573 184.042 183.652 183.746 183.778C183.339 183.936 183.027 184.156 182.839 184.408C182.652 184.66 182.621 184.927 182.73 185.211C182.824 185.463 182.98 185.636 183.199 185.746C183.417 185.841 183.636 185.904 183.902 185.904C184.152 185.904 184.495 185.904 184.933 185.872C185.48 185.841 185.917 185.825 186.277 185.841C186.62 185.856 186.964 185.967 187.277 186.155C187.589 186.344 187.839 186.659 188.011 187.1C188.167 187.509 188.199 187.919 188.105 188.312C188.011 188.706 187.792 189.068 187.449 189.399C187.105 189.729 186.699 189.981 186.183 190.186C185.667 190.391 185.105 190.485 184.542 190.485C183.98 190.485 183.433 190.375 182.933 190.17L183.042 189.147C183.511 189.352 183.996 189.462 184.496 189.477C184.995 189.493 185.433 189.414 185.839 189.257C186.308 189.068 186.652 188.832 186.855 188.533C187.058 188.234 187.089 187.935 186.964 187.604C186.87 187.352 186.714 187.179 186.495 187.069C186.277 186.958 186.042 186.911 185.777 186.895C185.511 186.895 185.167 186.911 184.73 186.943C184.199 186.99 183.761 187.006 183.402 186.974C183.058 186.958 182.714 186.848 182.402 186.675C182.089 186.486 181.855 186.171 181.683 185.746C181.527 185.368 181.511 184.99 181.605 184.613C181.699 184.235 181.917 183.888 182.23 183.589C182.542 183.29 182.964 183.022 183.464 182.833C183.886 182.66 184.339 182.566 184.792 182.534C185.246 182.503 185.683 182.519 186.089 182.613L186.027 183.652C185.589 183.526 185.183 183.495 184.792 183.542Z" fill="#E1B168"/>
<path d="M187.887 181.054L193.23 178.346L193.668 179.212L191.465 180.329L194.465 186.36L193.527 186.832L190.527 180.802L188.324 181.92L187.887 181.054Z" fill="#E1B168"/>
<path d="M203.746 180.929L202.074 179.764L198.652 181.921L198.965 183.936L198.027 184.519L196.871 176.159L197.793 175.576L204.715 180.315L203.746 180.929ZM198.496 180.882L201.23 179.166L197.887 176.851L198.496 180.882Z" fill="#E1B168"/>
<path d="M207.434 176.425C207.98 176.504 208.527 176.315 209.074 175.89C209.605 175.465 209.902 174.977 209.965 174.426C210.027 173.875 209.84 173.308 209.402 172.757L206.605 169.167L207.434 168.506L210.23 172.096C210.84 172.883 211.105 173.686 211.012 174.489C210.918 175.292 210.465 176.016 209.684 176.646C208.887 177.275 208.09 177.543 207.277 177.449C206.465 177.354 205.762 176.913 205.137 176.126L202.34 172.536L203.168 171.875L205.965 175.465C206.387 176.032 206.871 176.362 207.434 176.425Z" fill="#E1B168"/>
<path d="M218.793 168.301L216.027 167.64C215.918 167.766 215.824 167.876 215.73 167.954L214.34 169.324L216.012 171.04L215.262 171.78L209.902 166.27L212.043 164.16C212.73 163.467 213.434 163.105 214.121 163.058C214.809 163.011 215.449 163.278 216.027 163.877C216.465 164.318 216.73 164.806 216.809 165.309C216.902 165.813 216.824 166.333 216.559 166.852L219.652 167.451L218.793 168.301ZM215.059 167.277C215.527 166.821 215.777 166.349 215.84 165.908C215.887 165.451 215.715 165.026 215.324 164.617C214.934 164.223 214.527 164.05 214.074 164.097C213.621 164.144 213.168 164.396 212.699 164.853L211.309 166.223L213.668 168.647L215.059 167.277Z" fill="#E1B168"/>
<path d="M225.871 160.082L223.918 159.531L221.355 162.68L222.293 164.491L221.59 165.357L217.824 157.815L218.512 156.965L226.59 159.201L225.871 160.082ZM220.887 161.735L222.918 159.232L219.012 158.114L220.887 161.735Z" fill="#E1B168"/>
<path d="M225.043 147.661L225.605 146.779L232.043 150.952L231.465 151.849L224.105 152.321L229.09 155.549L228.527 156.431L222.09 152.258L222.668 151.361L230.043 150.889L225.043 147.661Z" fill="#E1B168"/>
<path d="M226.855 144.56L229.559 139.176L230.418 139.617L229.309 141.837L235.277 144.891L234.809 145.836L228.84 142.781L227.73 145.001L226.855 144.56Z" fill="#E1B168"/>
<path d="M232.84 134.042C232.59 134.357 232.418 134.672 232.293 134.971C232.137 135.38 232.074 135.758 232.137 136.073C232.199 136.388 232.371 136.592 232.652 136.703C232.902 136.797 233.137 136.813 233.355 136.718C233.574 136.624 233.777 136.498 233.949 136.309C234.121 136.12 234.355 135.868 234.621 135.522C234.965 135.097 235.262 134.766 235.512 134.514C235.762 134.262 236.074 134.089 236.418 133.979C236.762 133.869 237.168 133.916 237.605 134.089C238.012 134.246 238.324 134.498 238.543 134.845C238.762 135.191 238.871 135.6 238.887 136.057C238.902 136.529 238.793 137.017 238.59 137.537C238.387 138.057 238.074 138.529 237.684 138.954C237.277 139.379 236.84 139.694 236.371 139.914L235.699 139.143C236.168 138.938 236.574 138.655 236.918 138.293C237.262 137.931 237.512 137.553 237.668 137.159C237.855 136.687 237.902 136.262 237.824 135.915C237.746 135.569 237.543 135.333 237.23 135.191C236.98 135.097 236.746 135.081 236.527 135.175C236.309 135.254 236.105 135.396 235.918 135.585C235.73 135.774 235.512 136.041 235.246 136.388C234.918 136.813 234.621 137.143 234.371 137.395C234.121 137.647 233.824 137.82 233.465 137.915C233.121 138.025 232.73 137.978 232.293 137.805C231.918 137.647 231.621 137.411 231.402 137.08C231.199 136.75 231.09 136.372 231.074 135.915C231.074 135.475 231.168 135.002 231.355 134.483C231.527 134.058 231.746 133.648 232.043 133.286C232.324 132.924 232.637 132.625 232.98 132.389L233.699 133.144C233.371 133.444 233.074 133.727 232.84 134.042Z" fill="#E1B168"/>
<path d="M152.777 118.078C149.262 118.078 145.84 117.323 142.605 115.843C140.184 116.976 137.621 117.543 134.98 117.543C124.949 117.543 116.777 109.309 116.777 99.2011C116.777 90.6047 122.762 83.1262 131.059 81.2999C135.402 73.2388 143.684 68.2637 152.777 68.2637C165.793 68.2637 176.527 78.4187 177.402 91.4707C181.512 94.037 184.043 98.5871 184.043 103.452C184.043 111.23 177.762 117.559 170.043 117.559C167.652 117.559 165.293 116.929 163.184 115.733C159.902 117.291 156.387 118.078 152.777 118.078ZM142.605 114.111L142.949 114.268C149.309 117.275 156.605 117.228 162.902 114.127L163.277 113.938L163.637 114.158C165.59 115.339 167.809 115.969 170.059 115.969C176.918 115.969 182.496 110.348 182.496 103.436C182.496 98.9807 180.105 94.8242 176.262 92.5885L175.887 92.3681L175.871 91.943C175.246 79.5365 165.105 69.8066 152.777 69.8066C144.137 69.8066 136.277 74.6086 132.262 82.339L132.09 82.6696L131.73 82.7484C123.98 84.307 118.34 91.2188 118.34 99.1853C118.34 108.427 125.809 115.953 134.98 115.953C137.512 115.953 139.949 115.37 142.262 114.253L142.605 114.111Z" fill="#E1B168"/>
<path d="M168.746 132.783H132.09V115.748L132.965 115.858C133.73 115.953 134.371 116 134.98 116C137.512 116 139.949 115.417 142.262 114.3L142.605 114.111L142.949 114.268C149.309 117.275 156.605 117.228 162.902 114.126L163.277 113.938L163.637 114.158C164.996 114.977 166.48 115.528 168.09 115.795L168.746 115.906V132.783ZM133.652 131.209H167.184V117.228C165.777 116.929 164.434 116.425 163.199 115.717C156.684 118.787 149.168 118.834 142.605 115.843C140.184 116.976 137.621 117.543 134.98 117.543C134.559 117.543 134.121 117.527 133.652 117.48V131.209Z" fill="#E1B168"/>
<path d="M134.871 93.8167C134.434 93.8167 134.09 93.4703 134.09 93.0295C134.09 82.78 142.371 74.4355 152.543 74.4355C152.98 74.4355 153.324 74.7819 153.324 75.2228C153.324 75.6636 152.98 76.01 152.543 76.01C143.23 76.01 135.652 83.6459 135.652 93.0295C135.652 93.4703 135.309 93.8167 134.871 93.8167Z" fill="#E1B168"/>
<path d="M299.637 79.2854H194.246C193.809 79.2854 193.465 78.939 193.465 78.4981C193.465 78.0573 193.809 77.7109 194.246 77.7109H299.637C300.074 77.7109 300.418 78.0573 300.418 78.4981C300.418 78.939 300.074 79.2854 299.637 79.2854Z" fill="#E1B168"/>
<path d="M299.637 123.354H194.246C193.809 123.354 193.465 123.007 193.465 122.567C193.465 122.126 193.809 121.779 194.246 121.779H299.637C300.074 121.779 300.418 122.126 300.418 122.567C300.418 123.007 300.074 123.354 299.637 123.354Z" fill="#E1B168"/>
<path d="M106.59 79.2854H1.19922C0.761719 79.2854 0.417969 78.939 0.417969 78.4981C0.417969 78.0573 0.761719 77.7109 1.19922 77.7109H106.59C107.027 77.7109 107.371 78.0573 107.371 78.4981C107.371 78.939 107.012 79.2854 106.59 79.2854Z" fill="#E1B168"/>
<path d="M106.59 123.354H1.19922C0.761719 123.354 0.417969 123.007 0.417969 122.567C0.417969 122.126 0.761719 121.779 1.19922 121.779H106.59C107.027 121.779 107.371 122.126 107.371 122.567C107.371 123.007 107.012 123.354 106.59 123.354Z" fill="#E1B168"/>
<path d="M60.043 104.412H33.0117C30.8867 104.412 29.1523 102.665 29.1523 100.524C29.1523 98.3824 30.8867 96.6348 33.0117 96.6348H62.168C62.6055 96.6348 62.9492 96.9811 62.9492 97.422C62.9492 97.8628 62.6055 98.2092 62.168 98.2092H33.0117C31.7461 98.2092 30.7148 99.2483 30.7148 100.524C30.7148 101.799 31.7461 102.838 33.0117 102.838H60.0273C60.4648 102.838 60.8086 103.184 60.8086 103.625C60.8086 104.066 60.4648 104.412 60.043 104.412Z" fill="#E1B168"/>
<path d="M15.8242 111.639C7.62109 111.639 0.933594 106.664 0.933594 100.539C0.933594 94.4146 7.60547 89.4395 15.8242 89.4395C24.0273 89.4395 30.7148 94.4146 30.7148 100.539C30.7148 106.664 24.043 111.639 15.8242 111.639ZM15.8242 90.9981C8.48047 90.9981 2.49609 95.2806 2.49609 100.523C2.49609 105.782 8.48047 110.049 15.8242 110.049C23.168 110.049 29.1523 105.766 29.1523 100.523C29.1523 95.2806 23.1836 90.9981 15.8242 90.9981Z" fill="#E1B168"/>
<path d="M266.09 104.412H239.074C238.637 104.412 238.293 104.066 238.293 103.625C238.293 103.184 238.637 102.838 239.074 102.838H266.09C267.355 102.838 268.387 101.799 268.387 100.524C268.387 99.2483 267.355 98.2092 266.09 98.2092H236.934C236.496 98.2092 236.152 97.8628 236.152 97.422C236.152 96.9811 236.496 96.6348 236.934 96.6348H266.09C268.215 96.6348 269.949 98.3824 269.949 100.524C269.949 102.681 268.215 104.412 266.09 104.412Z" fill="#E1B168"/>
<path d="M280.918 107.893H275.699C271.668 107.893 268.387 104.587 268.387 100.525C268.387 96.4625 271.668 93.1562 275.699 93.1562H280.918V107.893ZM275.699 94.7464C272.527 94.7464 269.949 97.3442 269.949 100.54C269.949 103.736 272.527 106.334 275.699 106.334H279.355V94.7622H275.699V94.7464Z" fill="#E1B168"/>
<path d="M297.387 94.7463H280.152C279.715 94.7463 279.371 94.3999 279.371 93.9591C279.371 93.5182 279.715 93.1719 280.152 93.1719H297.387C297.824 93.1719 298.168 93.5182 298.168 93.9591C298.168 94.3999 297.809 94.7463 297.387 94.7463Z" fill="#E1B168"/>
<path d="M297.387 101.313H280.152C279.715 101.313 279.371 100.966 279.371 100.525C279.371 100.085 279.715 99.7383 280.152 99.7383H297.387C297.824 99.7383 298.168 100.085 298.168 100.525C298.168 100.966 297.809 101.313 297.387 101.313Z" fill="#E1B168"/>
<path d="M297.387 107.893H280.152C279.715 107.893 279.371 107.547 279.371 107.106C279.371 106.665 279.715 106.318 280.152 106.318H297.387C297.824 106.318 298.168 106.665 298.168 107.106C298.168 107.547 297.809 107.893 297.387 107.893Z" fill="#E1B168"/>
<path d="M102.371 111.639H88.7148C88.2773 111.639 87.9336 111.292 87.9336 110.852C87.9336 110.411 88.2773 110.064 88.7148 110.064H102.371C102.809 110.064 103.152 110.411 103.152 110.852C103.152 111.292 102.809 111.639 102.371 111.639Z" fill="#E1B168"/>
<path d="M101.699 99.9084H75.7773C75.3398 99.9084 74.9961 99.562 74.9961 99.1212C74.9961 98.6804 75.3398 98.334 75.7773 98.334H101.699C102.137 98.334 102.48 98.6804 102.48 99.1212C102.48 99.562 102.137 99.9084 101.699 99.9084Z" fill="#E1B168"/>
<path d="M103.418 88.1799H89.7617C89.3242 88.1799 88.9805 87.8335 88.9805 87.3927C88.9805 86.9518 89.3242 86.6055 89.7617 86.6055H103.418C103.855 86.6055 104.199 86.9518 104.199 87.3927C104.199 87.8335 103.855 88.1799 103.418 88.1799Z" fill="#E1B168"/>
<path d="M102.355 105.766H82.0742C81.6367 105.766 81.293 105.419 81.293 104.979C81.293 104.538 81.6367 104.191 82.0742 104.191H102.355C102.793 104.191 103.137 104.538 103.137 104.979C103.137 105.419 102.777 105.766 102.355 105.766Z" fill="#E1B168"/>
<path d="M102.246 93.9572H81.9648C81.5273 93.9572 81.1836 93.6109 81.1836 93.17C81.1836 92.7292 81.5273 92.3828 81.9648 92.3828H102.246C102.684 92.3828 103.027 92.7292 103.027 93.17C103.027 93.6109 102.684 93.9572 102.246 93.9572Z" fill="#E1B168"/>
<path d="M212.105 89.5822H198.449C198.012 89.5822 197.668 89.2359 197.668 88.795C197.668 88.3542 198.012 88.0078 198.449 88.0078H212.105C212.543 88.0078 212.887 88.3542 212.887 88.795C212.887 89.2359 212.543 89.5822 212.105 89.5822Z" fill="#E1B168"/>
<path d="M225.059 101.311H199.137C198.699 101.311 198.355 100.964 198.355 100.524C198.355 100.083 198.699 99.7363 199.137 99.7363H225.059C225.496 99.7363 225.84 100.083 225.84 100.524C225.84 100.964 225.496 101.311 225.059 101.311Z" fill="#E1B168"/>
<path d="M211.059 113.041H197.402C196.965 113.041 196.621 112.695 196.621 112.254C196.621 111.813 196.965 111.467 197.402 111.467H211.059C211.496 111.467 211.84 111.813 211.84 112.254C211.84 112.695 211.496 113.041 211.059 113.041Z" fill="#E1B168"/>
<path d="M218.762 95.4553H198.48C198.043 95.4553 197.699 95.1089 197.699 94.6681C197.699 94.2272 198.043 93.8809 198.48 93.8809H218.762C219.199 93.8809 219.543 94.2272 219.543 94.6681C219.543 95.1089 219.199 95.4553 218.762 95.4553Z" fill="#E1B168"/>
<path d="M218.871 107.262H198.59C198.152 107.262 197.809 106.916 197.809 106.475C197.809 106.034 198.152 105.688 198.59 105.688H218.871C219.309 105.688 219.652 106.034 219.652 106.475C219.652 106.916 219.293 107.262 218.871 107.262Z" fill="#E1B168"/>
</svg>
