<svg width="28" height="28" viewBox="0 0 28 28" fill="none" xmlns="http://www.w3.org/2000/svg">
<path d="M25.7294 20.6613C24.7943 19.7192 22.5298 18.3443 21.431 17.7903C20.0002 17.0696 19.8825 17.0107 18.7579 17.8462C18.0077 18.4038 17.509 18.9019 16.6311 18.7147C15.7532 18.5275 13.8454 17.4717 12.175 15.8066C10.5045 14.1414 9.38754 12.1783 9.19971 11.3033C9.01188 10.4284 9.51826 9.93554 10.0706 9.18363C10.849 8.12378 10.7901 7.94713 10.1247 6.51633C9.60599 5.40348 8.19108 3.16011 7.24545 2.22979C6.23388 1.23058 6.23388 1.40723 5.58207 1.67808C5.05141 1.90135 4.54232 2.17275 4.06117 2.48887C3.11908 3.11477 2.59621 3.63469 2.23056 4.41604C1.86491 5.19739 1.70063 7.02918 3.58895 10.4596C5.47726 13.89 6.80208 15.6441 9.54416 18.3785C12.2862 21.1129 14.3948 22.5832 17.4772 24.3119C21.2903 26.4475 22.7529 26.0312 23.5366 25.6662C24.3203 25.3011 24.8426 24.783 25.4697 23.8409C25.7866 23.3605 26.0586 22.852 26.2823 22.3217C26.5537 21.6723 26.7303 21.6723 25.7294 20.6613Z" stroke="#E1B168" stroke-width="2.1" stroke-miterlimit="10"/>
</svg>
