<svg width="150" height="150" viewBox="0 0 150 150" fill="none" xmlns="http://www.w3.org/2000/svg">
<circle cx="75" cy="75" r="75" fill="#292E36"/>
<path d="M91.8953 108.5H58.1037C51.8831 108.5 46.8398 103.454 46.8398 97.2314V72.686C46.8398 69.3039 49.5806 66.562 52.9614 66.562H97.0364C100.417 66.562 103.158 69.3039 103.158 72.686V97.2314C103.159 103.454 98.1158 108.5 91.8953 108.5Z" stroke="#E1B168" stroke-width="6" stroke-miterlimit="10"/>
<path d="M56.6367 64.4627V57.8719C56.6367 47.7256 64.859 39.5 75.0013 39.5C85.1436 39.5 93.3659 47.7256 93.3659 57.8719V64.4627" stroke="#E1B168" stroke-width="6" stroke-miterlimit="10"/>
<path d="M75 85.1792V95.5658" stroke="#E1B168" stroke-width="6" stroke-miterlimit="10" stroke-linecap="round"/>
<path d="M74.9992 85.1269C76.7699 85.1269 78.2054 83.6909 78.2054 81.9194C78.2054 80.148 76.7699 78.7119 74.9992 78.7119C73.2284 78.7119 71.793 80.148 71.793 81.9194C71.793 83.6909 73.2284 85.1269 74.9992 85.1269Z" stroke="#E1B168" stroke-width="6" stroke-miterlimit="10" stroke-linecap="round"/>
</svg>
