<svg width="53" height="53" viewBox="0 0 53 53" fill="none" xmlns="http://www.w3.org/2000/svg">
<circle cx="26.5369" cy="26.7557" r="25.8455" fill="#292E36" fill-opacity="0.1"/>
<path fill-rule="evenodd" clip-rule="evenodd" d="M34.5363 27.0006C34.5363 22.5835 30.817 19.002 26.2301 19.002C21.6431 19.002 17.9238 22.5835 17.9238 27.0006C17.9238 30.9927 20.9608 34.3018 24.9322 34.9024V29.3134H22.8227V27.0006H24.9322V25.2384C24.9322 23.2341 26.1726 22.1261 28.0697 22.1261C28.9785 22.1261 29.9293 22.2825 29.9293 22.2825V24.251H28.8814C27.8502 24.251 27.5275 24.8674 27.5275 25.5008V27.0006H29.831L29.4632 29.3134H27.5279V34.9031C31.4993 34.3029 34.5363 30.9938 34.5363 27.0006Z" fill="#292E36"/>
</svg>
