<svg width="52" height="53" viewBox="0 0 52 53" fill="none" xmlns="http://www.w3.org/2000/svg">
<circle cx="25.8455" cy="26.7557" r="25.8455" fill="#292E36" fill-opacity="0.1"/>
<path d="M28.9975 20.3349C29.9146 20.3376 30.7934 20.6896 31.4419 21.3141C32.0904 21.9385 32.456 22.7848 32.4587 23.6679V30.3332C32.456 31.2163 32.0904 32.0626 31.4419 32.6871C30.7934 33.3115 29.9146 33.6635 28.9975 33.6662H22.0759C21.1588 33.6635 20.28 33.3115 19.6315 32.6871C18.983 32.0626 18.6175 31.2163 18.6147 30.3332V23.6679C18.6175 22.7848 18.983 21.9385 19.6315 21.3141C20.28 20.6896 21.1588 20.3376 22.0759 20.3349H28.9975ZM28.9975 19.002H22.0759C19.4109 19.002 17.2305 21.1016 17.2305 23.6679V30.3332C17.2305 32.8995 19.4109 34.9992 22.0759 34.9992H28.9975C31.6626 34.9992 33.843 32.8995 33.843 30.3332V23.6679C33.843 21.1016 31.6626 19.002 28.9975 19.002Z" fill="#292E36"/>
<path d="M30.035 23.6681C29.8297 23.6681 29.6289 23.6095 29.4582 23.4996C29.2874 23.3897 29.1544 23.2336 29.0758 23.0509C28.9972 22.8682 28.9766 22.6672 29.0167 22.4732C29.0568 22.2793 29.1556 22.1011 29.3008 21.9613C29.4461 21.8215 29.6311 21.7262 29.8325 21.6877C30.0339 21.6491 30.2426 21.6689 30.4324 21.7446C30.6221 21.8202 30.7842 21.9484 30.8983 22.1128C31.0124 22.2772 31.0733 22.4705 31.0733 22.6683C31.0736 22.7997 31.0469 22.9298 30.9949 23.0512C30.9428 23.1727 30.8663 23.283 30.7699 23.3759C30.6734 23.4688 30.5588 23.5424 30.4327 23.5926C30.3066 23.6427 30.1715 23.6684 30.035 23.6681ZM25.5359 24.3344C26.0836 24.3344 26.6189 24.4908 27.0742 24.7838C27.5296 25.0768 27.8845 25.4932 28.094 25.9804C28.3036 26.4676 28.3584 27.0037 28.2516 27.5209C28.1448 28.0381 27.8811 28.5132 27.4938 28.8861C27.1066 29.259 26.6132 29.5129 26.0761 29.6158C25.539 29.7187 24.9823 29.6659 24.4763 29.4641C23.9704 29.2623 23.538 28.9205 23.2337 28.4821C22.9295 28.0436 22.7671 27.5281 22.7671 27.0007C22.7678 26.2938 23.0598 25.6161 23.5789 25.1162C24.098 24.6163 24.8018 24.3352 25.5359 24.3344ZM25.5359 23.0014C24.7145 23.0014 23.9116 23.236 23.2286 23.6754C22.5456 24.1149 22.0133 24.7395 21.699 25.4703C21.3846 26.2011 21.3024 27.0052 21.4626 27.781C21.6229 28.5568 22.0184 29.2694 22.5992 29.8287C23.1801 30.388 23.9201 30.7689 24.7257 30.9232C25.5313 31.0775 26.3664 30.9983 27.1253 30.6956C27.8841 30.3929 28.5328 29.8803 28.9891 29.2226C29.4455 28.565 29.6891 27.7917 29.6891 27.0007C29.6891 25.9401 29.2515 24.9228 28.4726 24.1728C27.6938 23.4228 26.6374 23.0014 25.5359 23.0014Z" fill="#292E36"/>
</svg>
