<svg width="52" height="53" viewBox="0 0 52 53" fill="none" xmlns="http://www.w3.org/2000/svg">
<circle cx="25.9188" cy="26.7557" r="25.8455" fill="#292E36" fill-opacity="0.1"/>
<path d="M25.7437 18.1406C21.0829 18.1406 17.3037 21.9181 17.3037 26.5768C17.3037 30.0304 19.3836 32.9981 22.3564 34.305C22.3338 33.7175 22.3526 33.0094 22.5033 32.3692C22.6654 31.6837 23.5885 27.7707 23.5885 27.7707C23.5885 27.7707 23.3172 27.2321 23.3172 26.4375C23.3172 25.1871 24.0406 24.2531 24.9449 24.2531C25.7135 24.2531 26.0828 24.8293 26.0828 25.5185C26.0828 26.2906 25.5892 27.443 25.3368 28.5126C25.1258 29.409 25.7851 30.1359 26.6706 30.1359C28.2681 30.1359 29.3457 28.0833 29.3457 25.6504C29.3457 23.8012 28.0986 22.419 25.8341 22.419C23.2757 22.419 21.6782 24.3284 21.6782 26.4601C21.6782 27.1945 21.8967 27.7142 22.2358 28.1134C22.3903 28.298 22.4129 28.3733 22.3564 28.5842C22.3149 28.7386 22.2245 29.1115 22.1831 29.2621C22.1266 29.4768 21.9532 29.5521 21.7611 29.473C20.5817 28.9909 20.0316 27.7029 20.0316 26.2492C20.0316 23.8539 22.055 20.9803 26.0639 20.9803C29.2855 20.9803 31.4068 23.3116 31.4068 25.8123C31.4068 29.1228 29.5643 31.5934 26.8514 31.5934C25.9396 31.5934 25.0843 31.1 24.7904 30.5426C24.7904 30.5426 24.3006 32.4859 24.1951 32.8626C24.018 33.5141 23.6676 34.1619 23.3473 34.6703C24.1242 34.8994 24.9299 35.0161 25.7399 35.0168C30.4007 35.0168 34.1799 31.2393 34.1799 26.5806C34.1799 21.9219 30.4045 18.1406 25.7437 18.1406Z" fill="#292E36"/>
</svg>
