<svg width="53" height="53" viewBox="0 0 53 53" fill="none" xmlns="http://www.w3.org/2000/svg">
<circle cx="26.2273" cy="26.7557" r="25.8455" fill="#292E36" fill-opacity="0.1"/>
<path d="M35.4114 21.5505C34.7437 21.8406 34.0373 22.0317 33.3144 22.1178C34.0741 21.673 34.6454 20.9663 34.9212 20.1303C34.2029 20.5503 33.4185 20.8449 32.6014 21.0017C32.2573 20.6411 31.8435 20.3542 31.3851 20.1585C30.9267 19.9628 30.4333 19.8624 29.9348 19.8633C27.9169 19.8633 26.2838 21.4726 26.2838 23.4565C26.2824 23.7324 26.314 24.0076 26.378 24.276C24.931 24.2081 23.514 23.839 22.2178 23.1922C20.9216 22.5454 19.7747 21.6351 18.8505 20.5196C18.5262 21.0663 18.3547 21.6899 18.3539 22.3255C18.3539 23.5714 19.004 24.6727 19.9855 25.318C19.404 25.3042 18.8344 25.1502 18.325 24.8693V24.9138C18.325 26.6566 19.5858 28.1065 21.2544 28.4365C20.9407 28.5202 20.6173 28.5625 20.2926 28.5626C20.0621 28.563 19.8322 28.5406 19.6062 28.4958C20.0701 29.9235 21.4202 30.9618 23.0195 30.9914C21.72 31.993 20.1244 32.5343 18.4837 32.5303C18.1925 32.5299 17.9015 32.5125 17.6123 32.4784C19.2814 33.5442 21.2216 34.1079 23.202 34.1026C29.927 34.1026 33.6011 28.6256 33.6011 23.8755C33.6011 23.7198 33.597 23.564 33.5896 23.412C34.3027 22.9047 34.9196 22.2744 35.4114 21.5505Z" fill="#292E36"/>
</svg>
